# xmcd CD database file
#
# Track frame offsets:
#	200
#	18062
#	35655
#	61590
#	77680
#	94200
#	115407
#	133487
#	148335
#	165265
#
# Disc length: 2500 seconds
#
# Revision: 1
# Processed by: cddbd v1.4PL0 Copyright (c) Steve Scherf et al.
# Submitted via: CDex 1.50beta10
#
DISCID=8209c20a
DTITLE=Artie "Bluesboy" White - Hit And Run
DYEAR=1992
DGENRE=Blues
TTITLE0=Doctor, Doctor
TTITLE1=Hit And Run
TTITLE2=Nothing But The Blues
TTITLE3=You Left Me Standing
TTITLE4=Bad Luck Child
TTITLE5=I'm Glad You Gone
TTITLE6=Just Getting In
TTITLE7=You Build My Hopes So High
TTITLE8=Mr. Mailman
TTITLE9=I'm A Lonely Man
EXTD=YEAR: 1992
EXTT0=
EXTT1=
EXTT2=
EXTT3=
EXTT4=
EXTT5=
EXTT6=
EXTT7=
EXTT8=
EXTT9=
PLAYORDER=
